<svg id="eey9LPvNZcl1" xmlns="http://www.w3.org/2000/svg" xmlns:xlink="http://www.w3.org/1999/xlink" viewBox="0 0 376.4 104" shape-rendering="geometricPrecision" text-rendering="geometricPrecision" width="276.4" height="104" >
<style><![CDATA[
#eey9LPvNZcl1{pointer-events: all}#eey9LPvNZcl1:hover #eey9LPvNZcl4_to {animation: eey9LPvNZcl4_to__to 1100ms linear 1 normal forwards}@keyframes eey9LPvNZcl4_to__to { 0% {transform: translate(78.774063px,196.357658px)} 9.090909% {transform: translate(78.774063px,103.907434px);animation-timing-function: cubic-bezier(0.94,0.01,0.345,0.91)} 18.181818% {transform: translate(78.774063px,103.907434px);animation-timing-function: cubic-bezier(0.94,0.01,0.345,0.91)} 72.727273% {transform: translate(78.774063px,195.710001px)} 100% {transform: translate(78.774063px,195.710001px)}} #eey9LPvNZcl1:hover #eey9LPvNZcl13 {animation: eey9LPvNZcl13_s_do 1100ms linear 1 normal forwards}@keyframes eey9LPvNZcl13_s_do { 0% {stroke-dashoffset: 316.69} 18.181818% {stroke-dashoffset: 316.69;animation-timing-function: cubic-bezier(0.925,-0.01,0.72,0.615)} 72.727273% {stroke-dashoffset: 105.561965} 100% {stroke-dashoffset: 105.561965}} #eey9LPvNZcl1:hover #eey9LPvNZcl14 {animation: eey9LPvNZcl14_s_do 1100ms linear 1 normal forwards}@keyframes eey9LPvNZcl14_s_do { 0% {stroke-dashoffset: 316.69} 18.181818% {stroke-dashoffset: 316.69;animation-timing-function: cubic-bezier(0.925,-0.01,0.805,0.59)} 72.727273% {stroke-dashoffset: 105.561965} 100% {stroke-dashoffset: 105.561965}} #eey9LPvNZcl1:hover #eey9LPvNZcl15 {animation: eey9LPvNZcl15_s_do 1100ms linear 1 normal forwards}@keyframes eey9LPvNZcl15_s_do { 0% {stroke-dashoffset: 316.69} 18.181818% {stroke-dashoffset: 316.69;animation-timing-function: cubic-bezier(0.925,-0.01,0.805,0.59)} 72.727273% {stroke-dashoffset: 105.561965} 100% {stroke-dashoffset: 105.561965}} #eey9LPvNZcl1:hover #eey9LPvNZcl16 {animation: eey9LPvNZcl16_s_do 1100ms linear 1 normal forwards}@keyframes eey9LPvNZcl16_s_do { 0% {stroke-dashoffset: 316.69} 18.181818% {stroke-dashoffset: 316.69;animation-timing-function: cubic-bezier(0.925,-0.01,0.805,0.59)} 72.727273% {stroke-dashoffset: 105.561965} 100% {stroke-dashoffset: 105.561965}} #eey9LPvNZcl1:hover #eey9LPvNZcl21_to {animation: eey9LPvNZcl21_to__to 1100ms linear 1 normal forwards}@keyframes eey9LPvNZcl21_to__to { 0% {transform: translate(78.774063px,196.357658px)} 9.090909% {transform: translate(78.774063px,196.357658px)} 18.181818% {transform: translate(78.774063px,103.907434px);animation-timing-function: cubic-bezier(0.94,0.01,0.345,0.91)} 27.272727% {transform: translate(78.774063px,103.907434px);animation-timing-function: cubic-bezier(0.94,0.01,0.345,0.91)} 100% {transform: translate(78.774063px,195.710001px)}} #eey9LPvNZcl1:hover #eey9LPvNZcl35 {animation: eey9LPvNZcl35_s_do 1100ms linear 1 normal forwards}@keyframes eey9LPvNZcl35_s_do { 0% {stroke-dashoffset: 316.69} 27.272727% {stroke-dashoffset: 316.69;animation-timing-function: cubic-bezier(0.925,-0.01,0.72,0.615)} 100% {stroke-dashoffset: 105.561965}} #eey9LPvNZcl1:hover #eey9LPvNZcl36 {animation: eey9LPvNZcl36_s_do 1100ms linear 1 normal forwards}@keyframes eey9LPvNZcl36_s_do { 0% {stroke-dashoffset: 316.69} 27.272727% {stroke-dashoffset: 316.69;animation-timing-function: cubic-bezier(0.925,-0.01,0.805,0.59)} 100% {stroke-dashoffset: 105.561965}} #eey9LPvNZcl1:hover #eey9LPvNZcl37 {animation: eey9LPvNZcl37_s_do 1100ms linear 1 normal forwards}@keyframes eey9LPvNZcl37_s_do { 0% {stroke-dashoffset: 316.69} 27.272727% {stroke-dashoffset: 316.69;animation-timing-function: cubic-bezier(0.925,-0.01,0.805,0.59)} 100% {stroke-dashoffset: 105.561965}} #eey9LPvNZcl1:hover #eey9LPvNZcl38 {animation: eey9LPvNZcl38_s_do 1100ms linear 1 normal forwards}@keyframes eey9LPvNZcl38_s_do { 0% {stroke-dashoffset: 316.69} 27.272727% {stroke-dashoffset: 316.69;animation-timing-function: cubic-bezier(0.925,-0.01,0.805,0.59)} 100% {stroke-dashoffset: 105.561965}}
]]></style>
<g transform="translate(-3.999999 0)" mask="url(#eey9LPvNZcl39)"><g transform="translate(229.549454 0)"><g id="eey9LPvNZcl21_to" transform="translate(78.774063,196.357658)"><g transform="translate(-78.774063,-137.49)"><path d="M88.81,47.78l-1.05,9.41-2.88-.8l3.93-8.61ZM71.83,56.74l-2.85.91-1.43-9.36l4.28,8.45Zm-8.63,9.9L61.13,68.8l-5.71-7.55l7.78,5.39Zm38.32-6.48l-5.4,7.78-2.15-2.07l7.55-5.71Z" fill="#6b6b6b"/><polygon points="87.23,77.74 70.69,78.08 64.888384,178.370396 95.995766,178.780576 87.23,77.74" fill="#f4912a"/><path d="M95.86,71.75c-.54,2.55-2.58,4.28-4.54,3.86s-3.1-2.83-2.55-5.38s2.58-4.28,4.54-3.86s3.1,2.83,2.55,5.38Zm-28.04-8.5c-.37-3.14,1.28-5.92,3.69-6.2s4.66,2,5,5.17-1.28,5.91-3.69,6.2-4.63-2.03-5-5.17ZM87.55,80.74c.1,4.83-5,6.46-8.62,6.54s-8.79-1.35-8.93-6.19s4.23-10.4,8.55-10.49s8.9,5.3,9,10.14Zm1.64-17.93c-.24,3.15-2.4,5.56-4.82,5.37s-4.18-2.89-3.94-6s2.4-5.56,4.82-5.37s4.18,2.85,3.94,6ZM68.4,70.65c.65,2.53-.4,5-2.34,5.48s-4.06-1.13-4.69-3.68.39-5,2.33-5.48s4.05,1.14,4.7,3.68Z" fill="#f4912a" stroke="#f4912a" stroke-width="8" stroke-miterlimit="10"/><path d="M68.05216,63.24337c-.37076-3.13724,1.28056-5.91114,3.68834-6.1957s4.66022,2.028,5.03098,5.16524-1.28056,5.91114-3.68834,6.1957-4.66022-2.028-5.03098-5.16524Zm16.56281,4.93501c-2.41735-.18643-4.18008-2.89091-3.93717-6.04063s2.39948-5.55193,4.81683-5.3655s4.18008,2.89091,3.93717,6.04063-2.39948,5.55193-4.81683,5.3655Zm-23.01476,4.2813c-.65098-2.5299.39523-4.98578,2.33678-5.48537s4.04321,1.1463,4.69419,3.6762-.39523,4.98578-2.33678,5.48537-4.04321-1.1463-4.69419-3.6762Zm29.96136,3.15226c-1.96025-.42024-3.10544-2.83156-2.55785-5.38583s2.5806-4.28424,4.54085-3.864s3.10544,2.83156,2.55785,5.38583-2.5806,4.28424-4.54085,3.864ZM87.79,80.73c.09,4.84-5,6.47-8.63,6.54s-8.79-1.35-8.89-6.18s4.23-10.41,8.55-10.5s8.87,5.31,8.97,10.14Z" transform="translate(.000001 0)" fill="#6e3f26"/><g mask="url(#eey9LPvNZcl33)"><path d="M-8.00604,0.150074C-8.022802,-2.025268,-1.834425,-3.039824,2,-3.039824s4.942841,1.91326,4.942841,3.039824-1.108416,3.039824-4.942841,3.039824-9.889769-.099251-10.00604-2.88975Z" transform="translate(88.977453 117.503211)" fill="#6e3f26" stroke-width="0"/><path d="M-8.684041,1.117994c0-2.827753,8.112834-4.877875,11.947259-4.877875s3.679623,2.633317,3.679623,3.759881s1.073822,3.238809-2.760603,3.238809-12.866279.706939-12.866279-2.120815Z" transform="translate(88.66646 133.77849)" fill="#6e3f26" stroke-width="0"/><path d="M-6.942841,0c0-1.126564-.229863-4.626817,3.604562-4.626817s14.600831,2.000618,14.53385,4.534561-11.048238,4.185749-14.882663,4.185749-3.255749-2.966929-3.255749-4.093493Z" transform="translate(71.171092 126.000768)" fill="#6e3f26" stroke-width="0"/><path d="M-6.942841,0c0-1.126564.108416-3.039824,3.942841-3.039824s11.605324.450031,11.605324,3.124259-7.770899,2.955389-11.605324,2.955389-3.942841-1.91326-3.942841-3.039824Z" transform="translate(72.249818 108.499728)" fill="#6e3f26" stroke-width="0"/><path d="M-6.942841,0c.024819-1.696501,5.765487-3.844759,9.599912-3.844759s4.28577,2.718195,4.28577,3.844759-1.859743,2.378831-5.694168,2.378831-8.166695-.453983-8.191514-2.378831Z" transform="translate(88.44305 101.205687)" fill="#6e3f26" stroke-width="0"/><path d="M-6.942841,0c0-1.126564.764626-3.313148,4.599051-3.313148s9.305064,1.654614,9.286631,3.313148-5.108416,2.039824-8.942841,2.039824-4.942841-.91326-4.942841-2.039824Z" transform="translate(71.654437 95.272742)" fill="#6e3f26" stroke-width="0"/><mask id="eey9LPvNZcl33" mask-type="alpha" x="-150%" y="-150%" height="400%" width="400%"><polygon points="87.23,77.74 70.69,78.08 64.888384,178.370396 95.995766,178.780576 87.23,77.74" fill="#fff"/></mask></g></g></g><line id="eey9LPvNZcl35" x1="55.92" y1="28.104059" x2="55.920001" y2="105.551965" fill="none" stroke="#444" stroke-width="0.5" stroke-miterlimit="10" stroke-dashoffset="316.69" stroke-dasharray="105.561965"/><line id="eey9LPvNZcl36" x1="55.920001" y1="14.771885" x2="55.920001" y2="105.551965" transform="translate(11.677993 0.046001)" fill="none" stroke="#444" stroke-width="0.5" stroke-miterlimit="10" stroke-dashoffset="316.69" stroke-dasharray="105.561965"/><line id="eey9LPvNZcl37" x1="55.920001" y1="14.771885" x2="55.920001" y2="105.551965" transform="translate(32.757201 0.046001)" fill="none" stroke="#444" stroke-width="0.5" stroke-miterlimit="10" stroke-dashoffset="316.69" stroke-dasharray="105.561965"/><line id="eey9LPvNZcl38" x1="55.92" y1="28.104059" x2="55.920001" y2="105.551965" transform="translate(45.164688 0)" fill="none" stroke="#444" stroke-width="0.5" stroke-miterlimit="10" stroke-dashoffset="316.69" stroke-dasharray="105.561965"/></g><mask id="eey9LPvNZcl39" mask-type="luminance" x="-150%" y="-150%" height="400%" width="400%"><rect width="376.4" height="104" rx="19.1" ry="19.1" transform="translate(.73 1.18)" fill="#fff"/></mask></g></g></svg>